# xmcd
#
# Track frame offsets:
#	150
#	20385
#	37650
#	56555
#	72712
#	93275
#	116865
#	133330
#	149750
#	168862
#	182647
#	198820
#	219010
#	238975
#	259650
#	280277
#	299467
#
# Disc length: 4317 seconds
#
# Revision: 2
# Processed by: cddbd v1.5.2PL0 Copyright (c) Steve Scherf et al.
# Submitted via: EasyCDDAExtractor 6.5.7.1
#
DISCID=0610db11
DTITLE=alişan - kalbim ellerinde
DYEAR=2004
DGENRE=Bass
TTITLE0=yemin olsun
TTITLE1=seni sevmek
TTITLE2=kaç defa
TTITLE3=benimsin
TTITLE4=belalinim
TTITLE5=kalbim ellerinde
TTITLE6=vay halime
TTITLE7=helalimsin
TTITLE8=anlamam asktan
TTITLE9=oy gelin
TTITLE10=tek basima
TTITLE11=kiyamete kadar
TTITLE12=allahtan kork
TTITLE13=ne çikar
TTITLE14=kadinim
TTITLE15=narim
TTITLE16=gelde geleyim
EXTD=
EXTT0=
EXTT1=
EXTT2=
EXTT3=
EXTT4=
EXTT5=
EXTT6=
EXTT7=
EXTT8=
EXTT9=
EXTT10=
EXTT11=
EXTT12=
EXTT13=
EXTT14=
EXTT15=
EXTT16=
PLAYORDER=
